<mxfile host="drawio-plugin" modified="2021-09-23T04:49:32.515Z" agent="5.0 (Macintosh; Intel Mac OS X 11_6_0) AppleWebKit/537.36 (KHTML, like Gecko) Chrome/89.0.4389.114 Safari/537.36" etag="DBTve-6NoyDv7_jtAW-C" version="14.7.4" type="embed"><diagram id="RD58azftk4-9GkMvL4Qv" name="ページ1"><mxGraphModel dx="1848" dy="838" grid="1" gridSize="10" guides="1" tooltips="1" connect="1" arrows="1" fold="1" page="1" pageScale="1" pageWidth="1600" pageHeight="900" math="0" shadow="0"><root><mxCell id="0"/><mxCell id="1" parent="0"/><mxCell id="37" value="" style="edgeStyle=orthogonalEdgeStyle;rounded=0;orthogonalLoop=1;jettySize=auto;html=1;" edge="1" parent="1" source="12" target="31"><mxGeometry relative="1" as="geometry"/></mxCell><mxCell id="12" value="web module" style="whiteSpace=wrap;html=1;" vertex="1" parent="1"><mxGeometry x="120" y="200" width="320" height="60" as="geometry"/></mxCell><mxCell id="13" value="domain module" style="whiteSpace=wrap;html=1;" vertex="1" parent="1"><mxGeometry x="120" y="540" width="120" height="60" as="geometry"/></mxCell><mxCell id="18" value="" style="edgeStyle=orthogonalEdgeStyle;rounded=0;orthogonalLoop=1;jettySize=auto;html=1;" edge="1" parent="1" source="16" target="13"><mxGeometry relative="1" as="geometry"/></mxCell><mxCell id="16" value="application module" style="whiteSpace=wrap;html=1;" vertex="1" parent="1"><mxGeometry x="320" y="540" width="120" height="60" as="geometry"/></mxCell><mxCell id="25" style="edgeStyle=orthogonalEdgeStyle;rounded=0;orthogonalLoop=1;jettySize=auto;html=1;exitX=0.25;exitY=1;exitDx=0;exitDy=0;entryX=0.5;entryY=0;entryDx=0;entryDy=0;" edge="1" parent="1" source="19" target="13"><mxGeometry relative="1" as="geometry"><mxPoint x="190" y="440" as="targetPoint"/></mxGeometry></mxCell><mxCell id="26" style="edgeStyle=orthogonalEdgeStyle;rounded=0;orthogonalLoop=1;jettySize=auto;html=1;exitX=0.75;exitY=1;exitDx=0;exitDy=0;" edge="1" parent="1" source="19" target="16"><mxGeometry relative="1" as="geometry"/></mxCell><mxCell id="19" value="infrastructure module" style="whiteSpace=wrap;html=1;" vertex="1" parent="1"><mxGeometry x="120" y="425" width="320" height="60" as="geometry"/></mxCell><mxCell id="24" value="" style="endArrow=classic;startArrow=classic;html=1;exitX=1;exitY=0.5;exitDx=0;exitDy=0;entryX=0;entryY=0.5;entryDx=0;entryDy=0;entryPerimeter=0;" edge="1" parent="1" source="19" target="22"><mxGeometry width="50" height="50" relative="1" as="geometry"><mxPoint x="500" y="550" as="sourcePoint"/><mxPoint x="550" y="500" as="targetPoint"/></mxGeometry></mxCell><mxCell id="28" value="" style="endArrow=none;dashed=1;html=1;" edge="1" parent="1"><mxGeometry width="50" height="50" relative="1" as="geometry"><mxPoint x="530" y="610" as="sourcePoint"/><mxPoint x="530" y="170" as="targetPoint"/></mxGeometry></mxCell><mxCell id="30" value="&lt;h1&gt;モジュール間の依存関係&lt;/h1&gt;&lt;p&gt;モジュール間の依存関係は下記図のようになっている。最終的にweb moduleにまとめて、Playとして deploy される。di モジュールはGoogle guice による、Dependency Injection の設定を行っており、web を除く、全てのモジュールに依存している。webはdiにのみ依存しており（結果的に全てのモジュールに依存している）、application.confにおける、play のDI機構で解決する。Play単体で実装していた時と比較して、依存関係をbuild.sbtで制御できるのがポイント。&lt;/p&gt;" style="text;html=1;strokeColor=none;fillColor=none;spacing=5;spacingTop=-20;whiteSpace=wrap;overflow=hidden;rounded=0;" vertex="1" parent="1"><mxGeometry x="20" y="20" width="480" height="150" as="geometry"/></mxCell><mxCell id="32" value="" style="edgeStyle=orthogonalEdgeStyle;rounded=0;orthogonalLoop=1;jettySize=auto;html=1;" edge="1" parent="1" source="31" target="19"><mxGeometry relative="1" as="geometry"/></mxCell><mxCell id="33" style="edgeStyle=orthogonalEdgeStyle;rounded=0;orthogonalLoop=1;jettySize=auto;html=1;exitX=0;exitY=0.5;exitDx=0;exitDy=0;entryX=0;entryY=0.5;entryDx=0;entryDy=0;" edge="1" parent="1" source="31" target="13"><mxGeometry relative="1" as="geometry"/></mxCell><mxCell id="34" style="edgeStyle=orthogonalEdgeStyle;rounded=0;orthogonalLoop=1;jettySize=auto;html=1;exitX=1;exitY=0.5;exitDx=0;exitDy=0;entryX=1;entryY=0.5;entryDx=0;entryDy=0;" edge="1" parent="1" source="31" target="16"><mxGeometry relative="1" as="geometry"/></mxCell><mxCell id="31" value="di module" style="whiteSpace=wrap;html=1;" vertex="1" parent="1"><mxGeometry x="120" y="310" width="320" height="60" as="geometry"/></mxCell><mxCell id="35" value="" style="group" vertex="1" connectable="0" parent="1"><mxGeometry x="580" y="425" width="80" height="90" as="geometry"/></mxCell><mxCell id="22" value="DB" style="strokeWidth=2;html=1;shape=mxgraph.flowchart.database;whiteSpace=wrap;" vertex="1" parent="35"><mxGeometry width="60" height="60" as="geometry"/></mxCell><mxCell id="29" value="etc..." style="text;html=1;align=center;verticalAlign=middle;resizable=0;points=[];autosize=1;strokeColor=none;" vertex="1" parent="35"><mxGeometry x="40" y="70" width="40" height="20" as="geometry"/></mxCell></root></mxGraphModel></diagram></mxfile>